<?xml version="1.0" encoding="utf-8"?>
<!-- Generator: Adobe Illustrator 25.4.1, SVG Export Plug-In . SVG Version: 6.00 Build 0)  -->
<svg version="1.1" id="Layer_1" xmlns="http://www.w3.org/2000/svg" xmlns:xlink="http://www.w3.org/1999/xlink" x="0px" y="0px"
	 viewBox="0 0 270 66" style="enable-background:new 0 0 270 66;" xml:space="preserve">
<style type="text/css">
	.st0{fill-rule:evenodd;clip-rule:evenodd;fill:#242C4F;}
</style>
<g>
	<path class="st0" d="M260.4,11.4c-2.7-2.2-5.9-3.8-9-5c-3.5-1.3-7.4-1.8-11.2-1.8c-2.7,0-5.4,0.3-7.9,1.2c-2.2,0.7-4.4,1.8-6,3.3
		c-1.7,1.5-3,3.2-3.8,5.2c-1,2.2-1.3,4.4-1.3,6.7v0.1c0,2.3,0.3,4.7,1.3,6.7c0.8,1.8,2,3.3,3.5,4.5c1.7,1.3,3.7,2.3,5.7,3
		c2.5,1,5,1.7,7.7,2.3c2,0.5,3.8,1,5.9,1.7c1.2,0.5,2.5,1,3.5,1.7c0.7,0.5,1.5,1.2,1.8,2c0.3,0.7,0.5,1.5,0.5,2.3v0.2
		c0,1.8-0.8,3.3-2.3,4.4c-1.8,1.2-4.2,1.5-6.2,1.5c-3.2,0-6.2-0.5-9-1.8c-2.5-1.2-5.7-2.2-8.4-1.8c-1.8,0.2-3.2,1-4.4,2.5
		c-0.7,0.8-1.2,1.7-1.7,2.7c3.2,2.8,6.7,5,10.7,6.4c4,1.5,8.2,2.2,12.4,2.2c2.8,0,5.5-0.3,8.2-1.2c2.3-0.7,4.5-1.8,6.4-3.3
		c1.8-1.5,3.2-3.2,4.2-5.2c1-2.3,1.5-4.9,1.5-7.4c0-2-0.3-4.2-1.2-6.2c-0.8-1.7-1.8-3.2-3.3-4.4c-1.7-1.3-3.5-2.5-5.5-3.3
		c-2.5-1-5-1.8-7.5-2.5c-2-0.5-4-1-6-1.7c-1.3-0.3-2.7-0.8-3.8-1.5c-0.8-0.5-1.7-1.2-2-2c-0.5-0.8-0.5-1.7-0.5-2.7V20
		c0-1.7,0.7-2.8,2-3.8c1.5-1.2,3.8-1.5,5.7-1.5c2.5,0,5,0.5,7.4,1.5c3,1.3,7.7,2.7,10.5,0C259.1,14.9,259.8,13.1,260.4,11.4"/>
	<path class="st0" d="M46.4,15.6c-0.5-1.2-1-2.5-1.5-3.7c-0.3-0.8-0.8-1.8-1.2-2.7c-0.5-1-1.2-2.3-2.2-3s-2.3-0.8-3.5-1
		c-1,0-2-0.2-3-0.2c-1.2,0-2.3,0-3.7,0L7.6,60.6c1.2,0,2.5,0,3.7,0s2.2,0,3.3-0.2c1.3-0.2,2.8-0.3,4-1.2c1.2-0.8,1.8-2.2,2.5-3.5
		c0.5-1,0.8-2.2,1.3-3.2c0.5-1.5,1.2-2.8,1.7-4.4l0.2-0.3h24.3l5.2,12.5h11.7L46.4,15.6z M28.2,38.2l8.2-20.1l8.2,20.1H28.2z"/>
	<path class="st0" d="M70,5.4v55c3,0,6.9-0.3,9-2.5c1.8-1.8,2.2-5,2.2-7.5V23.6l27.9,36.8h9.7v-55c-1.8,0-3.8,0-5.7,0.2
		c-1.2,0.2-2.5,0.5-3.5,1.3c-0.8,0.7-1.2,1.7-1.5,2.7c-0.3,1.7-0.5,3.5-0.5,5.4v26.1l-27-35.7H70z"/>
	<path class="st0" d="M165.6,11.4c-2.7-2.2-5.9-3.8-9-5c-3.5-1.3-7.4-1.8-11.2-1.8c-2.7,0-5.4,0.3-7.7,1.2c-2.2,0.7-4.2,1.8-6,3.3
		c-1.7,1.5-3,3.2-3.8,5.2c-1,2.2-1.3,4.4-1.3,6.7v0.1c0,2.3,0.3,4.7,1.3,6.7c0.8,1.8,2,3.3,3.5,4.5c1.7,1.3,3.7,2.3,5.7,3
		c2.5,1,5,1.7,7.7,2.3c2,0.5,3.8,1,5.9,1.7c1.2,0.5,2.5,1,3.5,1.7c0.7,0.5,1.5,1.2,1.8,2c0.3,0.7,0.5,1.5,0.5,2.3v0.2
		c0,1.8-0.8,3.3-2.3,4.4c-1.8,1.2-4.2,1.5-6.4,1.5c-3.2,0-6.2-0.5-9-1.8c-2.5-1.2-5.7-2.2-8.4-1.8c-1.8,0.2-3.2,1-4.4,2.5
		c-0.7,0.8-1.2,1.7-1.7,2.7c3.2,2.8,6.7,5,10.7,6.4c4,1.5,8.2,2.2,12.4,2.2c2.8,0,5.5-0.3,8.2-1.2c2.3-0.7,4.5-1.8,6.4-3.3
		c1.8-1.5,3.2-3.2,4.2-5.2c1-2.2,1.5-4.7,1.5-7.2v-0.2c0-2-0.3-4.2-1.2-6.2c-0.7-1.7-1.8-3.2-3.3-4.4c-1.7-1.3-3.5-2.5-5.5-3.3
		c-2.5-1-5-1.8-7.5-2.5c-2-0.5-4-1-6-1.7c-1.3-0.3-2.7-0.8-3.8-1.5c-0.8-0.5-1.7-1.2-2-2c-0.8-0.9-0.8-1.8-0.8-2.8v-0.2
		c0-1.7,0.7-2.8,2-3.8c1.5-1.2,3.8-1.5,5.7-1.5c2.5,0,5,0.5,7.4,1.5c3,1.3,7.7,2.7,10.5,0C164.4,14.9,165.1,13.1,165.6,11.4"/>
	<path class="st0" d="M173.6,5.4v55h41.7c0-2.3,0-5.5-1.2-7.4c-1.5-2.3-5-2.5-7.5-2.5h-21.8V37.7h26.4c0-1.2,0-2.3,0-3.5
		s-0.2-2.3-0.8-3.2c-1.5-2.8-5.9-3.2-8.7-3.2h-16.9V15.4h21.9c2.2,0,5.2-0.2,6.7-1.8c0.8-0.8,1-2.2,1.2-3.2c0.2-1.5,0.2-3.2,0.2-4.9
		L173.6,5.4L173.6,5.4z"/>
</g>
</svg>
